<svg version="1" xmlns="http://www.w3.org/2000/svg" width="192" height="192" viewBox="0 0 144.000000 144.000000"><path d="M0 72v72l30.8-.1 30.7-.1 13.6-14.1c10.9-11.4 14-14.1 15.9-13.9 1.9.3 2.2 0 1.7-1.7-.3-1.1.1-2.5.9-3.2 1.1-.9 1.4-.8 1.4.8 0 2.7 1.9 4.3 5.2 4.3 2.6 0 2.8-.3 2.8-4 0-2.2-.4-4-1-4-.5 0-1 1.1-1 2.5 0 1.6-.6 2.5-1.5 2.5-1 0-1.5-1-1.5-3.3 0-2.9 2.4-5.6 23-26.2l23-23V0H0v72zM138.5 101.1c-2.8 2.8-6 5.5-7.2 6-1.3.5-2.3 1.7-2.3 2.8 0 2.8-2.8 3.5-3.2.8-.2-1.7-1.1-2.3-3.7-2.5-2.6-.3-3.2 0-2.8 1.1.3.8.1 1.9-.4 2.4-1.5 1.5.1 4.3 2.4 4.3 1.7 0-1.2 3.4-11.8 14l-14 14H144v-24c0-13.2-.1-24-.3-24-.1 0-2.5 2.3-5.2 5.1z"/><path d="M105 111.4c0 4.3 1.7 5.7 2.2 1.9.4-3.4 2.2-3.3 2.6.2.4 3.1 2.2 2.3 2.2-1.1 0-1.3.5-2.4 1-2.4.6 0 1 1.3 1 3 0 1.6.5 3 1 3 1.4 0 1.2-5.6-.2-6.7-.7-.6-3.2-1.1-5.5-1.2-4.3-.1-4.3 0-4.3 3.3z"/></svg>